SplineFontDB: 3.2
FontName: DSESeriesB
FullName: DSE Series B
FamilyName: DSE Series B
Weight: Regular
Copyright: Copyright (c) 2022, Darren Embry
UComments: "2022-5-7: Created with FontForge (http://fontforge.org)"
Version: 001.000
ItalicAngle: 0
UnderlinePosition: -144
UnderlineWidth: 72
Ascent: 960
Descent: 192
InvalidEm: 0
LayerCount: 2
Layer: 0 0 "Back" 1
Layer: 1 0 "Fore" 0
XUID: [1021 323 -1642646731 11131862]
OS2Version: 0
OS2_WeightWidthSlopeOnly: 0
OS2_UseTypoMetrics: 1
CreationTime: 1651977848
ModificationTime: 1713740908
OS2TypoAscent: 0
OS2TypoAOffset: 1
OS2TypoDescent: 0
OS2TypoDOffset: 1
OS2TypoLinegap: 0
OS2WinAscent: 0
OS2WinAOffset: 1
OS2WinDescent: 0
OS2WinDOffset: 1
HheadAscent: 0
HheadAOffset: 1
HheadDescent: 0
HheadDOffset: 1
OS2Vendor: 'PfEd'
Lookup: 258 0 0 "kern" { "kern-12"  "kern-11"  "kern-10"  "kern-9"  "kern-8"  "kern-7"  "kern-6"  "kern-5"  "kern-4"  "kern-3"  "kern-2"  "kern-1"  } ['kern' ('latn' <'dflt' > ) ]
MarkAttachClasses: 1
DEI: 91125
KernClass2: 8+ 8 "kern-12"
 1 A
 1 L
 1 T
 1 V
 1 W
 1 Y
 1 4
 1 7
 1 J
 1 T
 1 V
 1 W
 1 Y
 1 4
 1 7
 -106 {} -106 {} -106 {} -106 {} -106 {} -106 {} -106 {} -106 {} -106 {} -106 {} -106 {} -106 {} -106 {} -106 {} -106 {} -106 {} -106 {} -106 {} -106 {} -106 {} -106 {} -106 {} -106 {} -106 {} -106 {} -106 {} -106 {} -106 {} -106 {} -106 {} -106 {} -106 {} -106 {} -106 {} -106 {} -106 {} -106 {} -106 {} -106 {} -106 {} -106 {} -106 {} -106 {} -106 {} -106 {} -106 {} -106 {} -106 {} -106 {} -106 {} -106 {} -106 {} -106 {} -106 {} -106 {} -106 {} -106 {} -106 {} -106 {} -106 {} -106 {} -106 {} -106 {} -106 {}
KernClass2: 8+ 13 "kern-11"
 1 A
 1 L
 1 T
 1 V
 1 W
 1 Y
 1 4
 1 7
 1 G
 1 O
 1 Q
 1 S
 1 X
 1 Z
 1 2
 1 3
 1 6
 1 8
 1 9
 1 0

StartChar: A
Encoding: 65 65 0
Width: 552
Flags: HW
LayerCount: 2
Fore
SplineSet
382.041015625 0 m 5
 340.603515625 204 l 5
 211.396484375 204 l 5
 169.95703125 0 l 5
 72 0 l 5
 228 768 l 5
 324 768 l 5
 480 0 l 5
 382.041015625 0 l 5
321 300.509765625 m 5
 276 522.048828125 l 5
 230.896484375 300 l 5
 321 300.509765625 l 5
228 768 m 5
 324 768 l 5
 228 768 l 5
EndSplineSet
EndChar

StartChar: B
Encoding: 66 66 1
Width: 468
Flags: HW
LayerCount: 2
Fore
SplineSet
377.999023438 482.82421875 m 4
 375.336914062 464.918945312 369.322265625 447.676757812 360.271484375 432 c 4
 355.755859375 424.177734375 350.513671875 416.797851562 344.62109375 409.938476562 c 5
 351.952148438 402.021484375 358.366210938 393.327148438 363.751953125 384 c 4
 370.263671875 372.720703125 375.215820312 360.611328125 378.471679688 348.001953125 c 4
 397.637695312 273.771484375 401.131835938 196.361328125 388.729492188 120.705078125 c 4
 385.91796875 103.552734375 380.024414062 87.05078125 371.333984375 71.9990234375 c 4
 345.610351562 27.4453125 298.072265625 -0.0009765625 246.625976562 -0.0009765625 c 6
 72 0 l 5
 72 768 l 5
 235.564453125 768 l 6
 287.010742188 768 334.548828125 740.553710938 360.271484375 696 c 4
 369.322265625 680.323242188 375.336914062 663.081054688 377.999023438 645.17578125 c 4
 386 591.354492188 386 536.645507812 377.999023438 482.82421875 c 4
283.041992188 496.94140625 m 4
 289.65234375 541.40234375 289.65234375 586.596679688 283.041992188 631.05859375 c 4
 282.155273438 637.02734375 280.150390625 642.774414062 277.133789062 648 c 4
 268.55859375 662.8515625 252.712890625 672 235.564453125 672 c 6
 168 672 l 5
 168 456 l 5
 235.564453125 456 l 6
 252.712890625 456 268.55859375 465.1484375 277.133789062 480 c 4
 280.150390625 485.225585938 282.155273438 490.97265625 283.041992188 496.94140625 c 4
280.61328125 336 m 4
 272.0390625 350.8515625 256.193359375 360 239.043945312 360 c 6
 168 360 l 5
 168 96 l 5
 246.625976562 95.9990234375 l 6
 263.775390625 95.9990234375 279.62109375 105.147460938 288.1953125 119.999023438 c 4
 291.091796875 125.016601562 293.056640625 130.516601562 293.994140625 136.234375 c 4
 304.239257812 198.732421875 301.353515625 262.678710938 285.51953125 324.000976562 c 4
 284.434570312 328.205078125 282.784179688 332.241210938 280.61328125 336 c 4
EndSplineSet
EndChar

StartChar: V
Encoding: 86 86 2
Width: 498
Flags: HW
LayerCount: 2
Fore
SplineSet
328.524414062 768 m 5
 426 768 l 5
 291 1.2001953125 l 5
 207 1.2001953125 l 5
 72 768 l 5
 169.475585938 768 l 5
 249 316.301757812 l 5
 328.524414062 768 l 5
EndSplineSet
EndChar

StartChar: S
Encoding: 83 83 3
Width: 468
Flags: HW
LayerCount: 2
Fore
SplineSet
396 600 m 5
 300 600 l 5
 300 627 l 6
 300 658.48046875 274.48046875 684 243 684 c 4
 211.520507812 684 186 658.48046875 186 627 c 4
 186 569.008789062 210.653320312 513.624023438 254.065429688 474.0859375 c 4
 344.591796875 390.287109375 395.999023438 272.905273438 396 150 c 4
 396 92.123046875 365.123046875 38.642578125 315 9.7041015625 c 4
 264.876953125 -19.234375 203.123046875 -19.234375 153 9.7041015625 c 4
 102.876953125 38.642578125 72 92.123046875 72 150 c 6
 72 192 l 5
 168 192 l 5
 168 149.868164062 l 6
 168 126.420898438 180.579101562 104.631835938 201 92.8427734375 c 4
 221.419921875 81.052734375 246.579101562 81.052734375 267 92.8427734375 c 4
 287.419921875 104.631835938 300 126.420898438 300 150 c 4
 299.999023438 246.274414062 259.654296875 338.221679688 188.608398438 403.862304688 c 4
 125.715820312 461.55859375 90.0009765625 542.377929688 90 627 c 4
 90 711.499023438 158.5 780 243 780 c 4
 327.5 780 396 711.5 396 627 c 4
 396 618 396 609 396 600 c 5
EndSplineSet
EndChar

StartChar: C
Encoding: 67 67 4
Width: 468
Flags: HW
LayerCount: 2
Fore
SplineSet
244.9140625 780 m 0
 328.356445312 780 396 712.356445312 396 628.9140625 c 1
 300 628.9140625 l 1
 300 659.336914062 275.336914062 684 244.9140625 684 c 0
 218.25 684 195.413085938 664.90234375 190.696289062 638.658203125 c 0
 160.434570312 470.233398438 160.434570312 297.763671875 190.696289062 129.338867188 c 0
 193.565429688 113.376953125 203.32421875 99.4892578125 217.370117188 91.3798828125 c 0
 234.4140625 81.5400390625 255.413085938 81.5400390625 272.45703125 91.3798828125 c 0
 289.500976562 101.220703125 300.000976562 119.405273438 300.000976562 139.0859375 c 2
 300 180 l 1
 396 180 l 1
 396 139.0859375 l 2
 396 85.1083984375 367.203125 35.23046875 320.45703125 8.2412109375 c 0
 273.7109375 -18.7470703125 216.1171875 -18.7470703125 169.37109375 8.2412109375 c 0
 130.84375 30.4853515625 104.078125 68.578125 96.2099609375 112.361328125 c 0
 63.9296875 292.013671875 63.9296875 475.983398438 96.2099609375 655.63671875 c 0
 109.145507812 727.618164062 171.779296875 780 244.9140625 780 c 0
EndSplineSet
EndChar

StartChar: D
Encoding: 68 68 5
Width: 468
Flags: HW
LayerCount: 2
Fore
SplineSet
376.731445312 141.470703125 m 4
 373.104492188 118.793945312 364.868164062 97.1015625 352.529296875 77.7333984375 c 4
 321.682617188 29.3154296875 268.248046875 0 210.838867188 0 c 6
 72 0 l 5
 72 768 l 5
 210.83984375 768 l 6
 270.860351562 768 326.321289062 735.979492188 356.33203125 684 c 4
 366.581054688 666.248046875 373.495117188 646.770507812 376.731445312 626.529296875 c 4
 402.422851562 465.86328125 402.422851562 302.135742188 376.731445312 141.470703125 c 4
278.498046875 624.625 m 4
 268.145507812 653.068359375 241.108398438 672 210.83984375 672 c 6
 168 672 l 5
 168 96 l 5
 210.838867188 96 l 6
 239.744140625 96 265.846679688 113.28515625 277.12890625 139.897460938 c 4
 279.401367188 145.259765625 281.015625 150.877929688 281.935546875 156.62890625 c 4
 306.021484375 307.252929688 306.021484375 460.747070312 281.936523438 611.37109375 c 4
 281.213867188 615.888671875 280.0625 620.327148438 278.498046875 624.625 c 4
EndSplineSet
EndChar

StartChar: E
Encoding: 69 69 6
Width: 432
Flags: HW
LayerCount: 2
Fore
SplineSet
360 0 m 5
 72 0 l 5
 72 768 l 5
 354 768 l 5
 354 672 l 5
 168 672 l 5
 168 468 l 5
 288 468 l 5
 288 372 l 5
 168 372 l 5
 168 96 l 5
 360 96 l 5
 360 0 l 5
EndSplineSet
EndChar

StartChar: F
Encoding: 70 70 7
Width: 432
Flags: HW
LayerCount: 2
Fore
SplineSet
72 768 m 5
 360 768 l 5
 360 672 l 5
 168 672 l 5
 168 468 l 5
 276 468 l 5
 276 372 l 5
 168 372 l 5
 168 0 l 5
 72 0 l 5
 72 768 l 5
EndSplineSet
EndChar

StartChar: G
Encoding: 71 71 8
Width: 468
Flags: HW
LayerCount: 2
Fore
SplineSet
244.9140625 780 m 4
 328.356445312 780 396 712.356445312 396 628.9140625 c 5
 300 628.9140625 l 5
 300 659.336914062 275.336914062 684 244.9140625 684 c 4
 218.25 684 195.413085938 664.90234375 190.696289062 638.658203125 c 4
 160.434570312 470.234375 160.434570312 297.763671875 190.696289062 129.338867188 c 4
 193.565429688 113.376953125 203.32421875 99.4892578125 217.370117188 91.3798828125 c 4
 234.4140625 81.5400390625 255.413085938 81.5400390625 272.458007812 91.3798828125 c 4
 289.501953125 101.220703125 300.000976562 119.40625 300.000976562 139.0859375 c 6
 300 288 l 5
 252 288 l 5
 252 384 l 5
 396 384 l 5
 396 139.0859375 l 6
 396 85.1083984375 367.203125 35.23046875 320.45703125 8.2421875 c 4
 273.7109375 -18.7470703125 216.1171875 -18.7470703125 169.37109375 8.2421875 c 4
 130.84375 30.4853515625 104.078125 68.578125 96.2099609375 112.361328125 c 4
 63.9296875 292.013671875 63.9296875 475.983398438 96.2099609375 655.63671875 c 4
 109.145507812 727.618164062 171.779296875 780 244.9140625 780 c 4
EndSplineSet
EndChar

StartChar: H
Encoding: 72 72 9
Width: 468
Flags: HW
LayerCount: 2
Fore
SplineSet
72 0 m 5
 72 768 l 5
 168 768 l 5
 168 456 l 5
 300 456 l 5
 300 768 l 5
 396 768 l 5
 396 0 l 5
 300 0 l 5
 300 360 l 5
 168 360 l 5
 168 0 l 5
 72 0 l 5
EndSplineSet
EndChar

StartChar: N
Encoding: 78 78 10
Width: 468
Flags: HW
LayerCount: 2
Fore
SplineSet
396 0 m 5
 312 0 l 5
 168 456 l 5
 168 0 l 5
 72 0 l 5
 72 768 l 5
 170.145507812 768 l 5
 300 356.795898438 l 5
 300 768 l 5
 396 768 l 5
 396 0 l 5
EndSplineSet
EndChar

StartChar: O
Encoding: 79 79 11
Width: 492
Flags: HW
LayerCount: 2
Fore
SplineSet
322.192382812 8.416015625 m 4
 275.043945312 -18.8046875 216.956054688 -18.8046875 169.807617188 8.416015625 c 4
 130.912109375 30.8720703125 103.904296875 69.3427734375 95.99609375 113.553710938 c 4
 64.0009765625 292.430664062 64.0009765625 475.567382812 95.99609375 654.446289062 c 4
 108.9921875 727.102539062 172.190429688 780 246 780 c 4
 319.809570312 780 383.0078125 727.102539062 396.00390625 654.446289062 c 4
 427.999023438 475.568359375 427.999023438 292.432617188 396.00390625 113.555664062 c 4
 388.096679688 69.34375 361.087890625 30.8720703125 322.192382812 8.416015625 c 4
274.192382812 91.5537109375 m 4
 288.583984375 99.86328125 298.577148438 114.098632812 301.502929688 130.45703125 c 4
 331.499023438 298.154296875 331.499023438 469.844726562 301.502929688 637.54296875 c 4
 296.694335938 664.427734375 273.310546875 684 246 684 c 4
 218.690429688 684 195.306640625 664.427734375 190.497070312 637.543945312 c 4
 160.500976562 469.84375 160.500976562 298.153320312 190.497070312 130.455078125 c 4
 193.422851562 114.09765625 203.416015625 99.86328125 217.807617188 91.5537109375 c 4
 235.252929688 81.482421875 256.747070312 81.482421875 274.192382812 91.5537109375 c 4
EndSplineSet
EndChar

StartChar: R
Encoding: 82 82 12
Width: 468
Flags: HW
LayerCount: 2
Fore
SplineSet
168 456 m 5
 223.788085938 456 l 6
 257.149414062 456 286.142578125 478.918945312 293.84375 511.379882812 c 4
 302.05078125 545.979492188 302.051757812 582.018554688 293.84375 616.619140625 c 4
 286.142578125 649.081054688 257.150390625 672 223.788085938 672 c 6
 168 672 l 5
 168 456 l 5
223.788085938 360 m 6
 168 360.000976562 l 5
 168 0.0009765625 l 5
 72 0.0009765625 l 5
 72 768.000976562 l 5
 223.788085938 768.000976562 l 6
 268.344726562 768.000976562 311.076171875 750.301757812 342.58203125 718.794921875 c 4
 364.600585938 696.77734375 380.06640625 669.072265625 387.252929688 638.774414062 c 4
 393.064453125 614.275390625 395.999023438 589.180664062 395.999023438 564.000976562 c 4
 395.999023438 538.8203125 393.063476562 513.725585938 387.252929688 489.2265625 c 4
 377.544921875 448.30078125 352.837890625 412.504882812 318.009765625 388.911132812 c 5
 395.651367188 0.0009765625 l 5
 298.10546875 0.0009765625 l 5
 226.216796875 360.018554688 l 6
 225.407226562 360.0078125 224.596679688 360 223.788085938 360 c 6
EndSplineSet
EndChar

StartChar: I
Encoding: 73 73 13
Width: 240
Flags: HW
LayerCount: 2
Fore
SplineSet
72 0 m 5
 72 768 l 5
 168 768 l 5
 168 0 l 5
 72 0 l 5
EndSplineSet
EndChar

StartChar: J
Encoding: 74 74 14
Width: 478
Flags: HW
LayerCount: 2
Fore
SplineSet
241.416992188 84.068359375 m 4
 279.923828125 85.75 310.276367188 117.45703125 310.276367188 156 c 6
 310.276367188 768 l 5
 406.276367188 768 l 5
 406.276367188 156 l 6
 406.276367188 66.06640625 335.453125 -7.9169921875 245.604492188 -11.83984375 c 4
 159.379882812 -15.6044921875 84.330078125 46.5771484375 72 131.999023438 c 5
 167.015625 145.713867188 l 5
 172.299804688 109.104492188 204.463867188 82.455078125 241.416992188 84.068359375 c 4
EndSplineSet
EndChar

StartChar: K
Encoding: 75 75 15
Width: 480
Flags: HW
LayerCount: 2
Fore
SplineSet
408 0 m 5
 308.497070312 0 l 5
 207.380859375 370.90625 l 5
 168 288 l 5
 168 0 l 5
 72 0 l 5
 72 768 l 5
 168 768 l 5
 168 511.745117188 l 5
 289.720703125 768 l 5
 396 768 l 5
 270.599609375 504 l 5
 408 0 l 5
EndSplineSet
EndChar

StartChar: L
Encoding: 76 76 16
Width: 432
Flags: HW
LayerCount: 2
Fore
SplineSet
72 768 m 5
 168 768 l 5
 168 90 l 5
 360 90 l 5
 360 0 l 5
 72 0 l 5
 72 768 l 5
EndSplineSet
EndChar

StartChar: M
Encoding: 77 77 17
Width: 516
Flags: HW
LayerCount: 2
Fore
SplineSet
444 768 m 5
 444 0 l 5
 348 0 l 5
 348 456 l 5
 258 168 l 5
 168 456 l 5
 168 0 l 5
 72 0 l 5
 72 768 l 5
 171.077148438 768 l 5
 258 489.846679688 l 5
 344.922851562 768 l 5
 444 768 l 5
EndSplineSet
EndChar

StartChar: zero
Encoding: 48 48 18
Width: 492
Flags: HW
LayerCount: 2
Fore
SplineSet
322.192382812 8.416015625 m 0
 275.043945312 -18.8046875 216.956054688 -18.8046875 169.807617188 8.416015625 c 0
 130.912109375 30.8720703125 103.904296875 69.3427734375 95.99609375 113.553710938 c 0
 64.0009765625 292.430664062 64.0009765625 475.567382812 95.99609375 654.446289062 c 0
 108.9921875 727.102539062 172.190429688 780 246 780 c 0
 319.809570312 780 383.0078125 727.102539062 396.00390625 654.446289062 c 0
 427.999023438 475.568359375 427.999023438 292.432617188 396.00390625 113.555664062 c 0
 388.096679688 69.34375 361.087890625 30.8720703125 322.192382812 8.416015625 c 0
274.192382812 91.5537109375 m 0
 288.583984375 99.86328125 298.577148438 114.098632812 301.502929688 130.45703125 c 0
 331.499023438 298.154296875 331.499023438 469.844726562 301.502929688 637.54296875 c 0
 296.694335938 664.427734375 273.310546875 684 246 684 c 0
 218.690429688 684 195.306640625 664.427734375 190.497070312 637.543945312 c 4
 160.500976562 469.84375 160.500976562 298.153320312 190.497070312 130.455078125 c 0
 193.422851562 114.09765625 203.416015625 99.86328125 217.807617188 91.5537109375 c 0
 235.252929688 81.482421875 256.747070312 81.482421875 274.192382812 91.5537109375 c 0
EndSplineSet
EndChar

StartChar: P
Encoding: 80 80 19
Width: 468
Flags: HW
LayerCount: 2
Fore
SplineSet
371.077148438 439.383789062 m 4
 344.991210938 376.780273438 283.821289062 336 216 336 c 6
 168 336 l 5
 168 0 l 5
 72 0 l 5
 72 768 l 5
 223.786132812 768 l 6
 291.735351562 768 352.994140625 727.068359375 378.998046875 664.291015625 c 4
 382.424804688 656.017578125 385.184570312 647.484375 387.252929688 638.770507812 c 4
 403.028320312 572.265625 397.365234375 502.475585938 371.077148438 439.383789062 c 4
282.4609375 476.306640625 m 4
 300.9609375 520.705078125 304.9453125 569.81640625 293.844726562 616.615234375 c 4
 292.95703125 620.349609375 291.774414062 624.006835938 290.305664062 627.552734375 c 4
 279.161132812 654.458007812 252.907226562 672 223.786132812 672 c 6
 168 672 l 5
 168 432 l 5
 216 432 l 6
 245.065429688 432 271.28125 449.4765625 282.4609375 476.306640625 c 4
EndSplineSet
EndChar

StartChar: Q
Encoding: 81 81 20
Width: 492
Flags: HW
LayerCount: 2
Fore
SplineSet
190.49609375 637.543945312 m 4
 160.5 469.84375 160.5 298.153320312 190.49609375 130.455078125 c 4
 193.421875 114.09765625 203.415039062 99.86328125 217.806640625 91.5537109375 c 4
 228.247070312 85.5263671875 240.344726562 83.00390625 252.32421875 84.35546875 c 5
 215.999023438 138 l 5
 275.609375 178.380859375 l 5
 302.857421875 138.154296875 l 5
 331.494140625 303.424804688 331.036132812 472.428710938 301.502929688 637.54296875 c 4
 296.693359375 664.427734375 273.309570312 684 245.999023438 684 c 4
 218.689453125 684 195.305664062 664.427734375 190.49609375 637.543945312 c 4
95.99609375 654.446289062 m 4
 108.991210938 727.102539062 172.189453125 780 245.999023438 780 c 4
 319.80859375 780 383.006835938 727.102539062 396.002929688 654.446289062 c 4
 427.998046875 475.568359375 427.998046875 292.432617188 396.002929688 113.5546875 c 4
 391.573242188 88.7900390625 381.081054688 65.505859375 365.461914062 45.7822265625 c 5
 401.609375 -7.619140625 l 5
 341.998046875 -48 l 5
 308.508789062 1.4111328125 l 5
 263.836914062 -18.6826171875 212.227539062 -16.076171875 169.806640625 8.416015625 c 4
 130.911132812 30.8720703125 103.903320312 69.34375 95.99609375 113.553710938 c 4
 64.0009765625 292.430664062 64.0009765625 475.567382812 95.99609375 654.446289062 c 4
EndSplineSet
EndChar

StartChar: T
Encoding: 84 84 21
Width: 432
Flags: HW
LayerCount: 2
Fore
SplineSet
72 768 m 5
 360 768 l 5
 360 672 l 5
 264 672 l 5
 264 0 l 5
 168 0 l 5
 168 672 l 5
 72 672 l 5
 72 768 l 5
EndSplineSet
EndChar

StartChar: U
Encoding: 85 85 22
Width: 468
Flags: HW
LayerCount: 2
Fore
SplineSet
72 768 m 5
 168 768 l 5
 168 150 l 6
 168 126.419921875 180.580078125 104.631835938 201.000976562 92.841796875 c 4
 221.420898438 81.052734375 246.580078125 81.052734375 267.000976562 92.841796875 c 4
 287.420898438 104.631835938 300 126.420898438 300 150 c 6
 300 768 l 5
 396 768 l 5
 396 150 l 6
 396 92.123046875 365.123046875 38.642578125 315.000976562 9.7041015625 c 4
 264.877929688 -19.234375 203.123046875 -19.234375 153.000976562 9.7041015625 c 4
 102.877929688 38.642578125 72 92.123046875 72 150 c 6
 72 768 l 5
EndSplineSet
EndChar

StartChar: W
Encoding: 87 87 23
Width: 624
Flags: HW
CounterMasks: 1 e0
LayerCount: 2
Fore
SplineSet
270.67578125 768 m 5
 353.32421875 768 l 5
 414.971679688 398.118164062 l 5
 455.427734375 768 l 5
 552 768 l 5
 468 0 l 5
 384 0 l 5
 312 432 l 5
 240 0 l 5
 156 0 l 5
 72 768 l 5
 168.572265625 768 l 5
 209.028320312 398.1171875 l 5
 270.67578125 768 l 5
EndSplineSet
EndChar

StartChar: X
Encoding: 88 88 24
Width: 498
Flags: HW
LayerCount: 2
Fore
SplineSet
77.9990234375 768 m 5
 178.84765625 768 l 5
 248.999023438 550.010742188 l 5
 319.151367188 768 l 5
 419.999023438 768 l 5
 299.423828125 393.322265625 l 5
 426 0 l 5
 325.15234375 0 l 5
 248.999023438 236.634765625 l 5
 172.84765625 0 l 5
 72 0 l 5
 198.575195312 393.322265625 l 5
 77.9990234375 768 l 5
EndSplineSet
EndChar

StartChar: Y
Encoding: 89 89 25
Width: 552
Flags: HW
LayerCount: 2
Fore
SplineSet
377.640625 768 m 5
 480 768 l 5
 324.000976562 348 l 5
 324.000976562 0 l 5
 228.000976562 0 l 5
 228.000976562 348 l 5
 72 768 l 5
 174.408203125 768 l 5
 276 494.484375 l 5
 377.640625 768 l 5
EndSplineSet
EndChar

StartChar: Z
Encoding: 90 90 26
Width: 468
Flags: HW
LayerCount: 2
Fore
SplineSet
170.400390625 96 m 5
 396 96 l 5
 396 0 l 5
 72 0 l 5
 72 108 l 5
 292.899414062 672 l 5
 90 672 l 5
 90 768 l 5
 396.000976562 768 l 5
 396 672 l 5
 170.400390625 96 l 5
EndSplineSet
EndChar

StartChar: one
Encoding: 49 49 27
Width: 300
Flags: HW
LayerCount: 2
Fore
SplineSet
72 719.982421875 m 5
 72 719.982421875 l 5
 102.59375 730.891601562 131.08203125 747.15625 156.076171875 768.00390625 c 5
 228.072265625 768 l 5
 228.072265625 0 l 5
 132.072265625 0 l 5
 132.072265625 660 l 5
 72.072265625 660 l 5
 72 719.982421875 l 5
EndSplineSet
EndChar

StartChar: two
Encoding: 50 50 28
Width: 468
Flags: HW
LayerCount: 2
Fore
SplineSet
168 618 m 5
 72 618 l 5
 72 707.469726562 144.530273438 780 234 780 c 4
 323.470703125 780 396 707.469726562 396 618 c 4
 396 538.188476562 367.3671875 461.173828125 315.635742188 400.3984375 c 4
 241.436523438 313.235351562 193.185546875 207.810546875 175.53125 96.0009765625 c 5
 384 96 l 5
 384 0 l 5
 72 0 l 5
 71.9990234375 169.533203125 132.452148438 333.530273438 242.532226562 462.624023438 c 4
 279.627929688 505.982421875 300 561.061523438 300 618 c 4
 300 654.450195312 270.451171875 684 234 684 c 4
 197.549804688 684 168 654.450195312 168 618 c 5
EndSplineSet
EndChar

StartChar: three
Encoding: 51 51 29
Width: 468
Flags: HW
LayerCount: 2
Fore
SplineSet
307.703125 9.0517578125 m 4
 259.0859375 -19.017578125 199.186523438 -19.017578125 150.569335938 9.0517578125 c 4
 101.952148438 37.12109375 72.001953125 88.9951171875 72.001953125 145.133789062 c 5
 168.001953125 145.133789062 l 5
 168.001953125 123.29296875 179.654296875 103.111328125 198.569335938 92.1904296875 c 4
 217.484375 81.26953125 240.788085938 81.26953125 259.703125 92.1904296875 c 4
 273.5390625 100.178710938 283.697265625 113.265625 288.004882812 128.649414062 c 4
 308.430664062 201.607421875 302.642578125 279.416992188 271.647460938 348.549804688 c 4
 261.974609375 370.12109375 240.538085938 384.002929688 216.8984375 384.002929688 c 6
 213.6171875 384 l 5
 180.000976562 384 l 5
 180.000976562 480 l 5
 213.6171875 480 l 6
 240.9765625 480 264.870117188 498.5078125 271.711914062 524.998046875 c 4
 280.720703125 559.890625 283.84765625 596.041992188 280.958984375 631.962890625 c 4
 280.28515625 640.331054688 277.758789062 648.444335938 273.561523438 655.71484375 c 4
 263.456054688 673.217773438 244.780273438 684 224.5703125 684 c 4
 193.328125 684 168 658.672851562 168 627.4296875 c 5
 72 627.4296875 l 5
 72 711.692382812 140.30859375 780 224.5703125 780 c 4
 279.078125 780 329.446289062 750.920898438 356.700195312 703.71484375 c 4
 368.020507812 684.106445312 374.834960938 662.224609375 376.649414062 639.65625 c 4
 380.393554688 593.091796875 376.34375 546.229492188 364.663085938 500.998046875 c 4
 358.159179688 475.80859375 345.458007812 452.646484375 327.759765625 433.666015625 c 5
 340.948242188 420.423828125 351.599609375 404.879882812 359.247070312 387.822265625 c 4
 399.424804688 298.206054688 406.926757812 197.34375 380.44921875 102.768554688 c 4
 369.377929688 63.2236328125 343.266601562 29.5849609375 307.703125 9.0517578125 c 4
EndSplineSet
EndChar

StartChar: four
Encoding: 52 52 30
Width: 516
Flags: HW
LayerCount: 2
Fore
SplineSet
72 192 m 1
 72 288 l 1
 300 768 l 1
 408 768 l 1
 408 282 l 1
 444 282 l 1
 444 192 l 1
 408 192 l 1
 408 0 l 1
 312 0 l 1
 312 192 l 1
 72 192 l 1
312 583.5 m 5
 168.787109375 282 l 1
 312 282 l 1
 312 583.5 l 5
EndSplineSet
EndChar

StartChar: five
Encoding: 53 53 31
Width: 480
Flags: HW
LayerCount: 2
Fore
SplineSet
384.001953125 672 m 5
 200.954101562 672 l 5
 195.647460938 507.95703125 l 5
 211.587890625 513.284179688 228.28515625 516 245.09375 516 c 4
 300.826171875 516 352.326171875 486.266601562 380.193359375 438 c 4
 387.858398438 424.723632812 393.524414062 410.390625 397.008789062 395.461914062 c 4
 420.713867188 293.8984375 405.784179688 187.1484375 355.124023438 95.9853515625 c 4
 318.083007812 29.330078125 247.8203125 -12.0068359375 171.564453125 -12.0068359375 c 4
 136.809570312 -12.0068359375 102.598632812 -3.3818359375 72 13.095703125 c 5
 117.514648438 97.6201171875 l 5
 134.125976562 88.67578125 152.697265625 83.9931640625 171.564453125 83.9931640625 c 4
 212.959960938 83.9931640625 251.1015625 106.43359375 271.209960938 142.6171875 c 4
 310.291015625 212.943359375 321.80859375 295.293945312 303.521484375 373.642578125 c 4
 302.180664062 379.383789062 300.001953125 384.89453125 297.0546875 390 c 4
 286.3359375 408.563476562 266.529296875 420 245.09375 420 c 4
 224.838867188 420 205.951171875 409.78125 194.935546875 392.913085938 c 5
 96.001953125 396 l 5
 108.001953125 768 l 5
 384.001953125 768 l 5
 384.001953125 672 l 5
EndSplineSet
EndChar

StartChar: six
Encoding: 54 54 32
Width: 475
Flags: HW
LayerCount: 2
Fore
SplineSet
174.083984375 307.99609375 m 1
 174.080078125 307.99609375 l 1
 165.986328125 250.958007812 165.986328125 193.064453125 174.080078125 136.028320312 c 0
 176.694335938 117.607421875 187.633789062 101.412109375 203.74609375 92.109375 c 0
 222.474609375 81.296875 245.548828125 81.296875 264.278320312 92.109375 c 0
 280.389648438 101.412109375 291.330078125 117.606445312 293.942382812 136.026367188 c 0
 302.036132812 193.064453125 302.036132812 250.959960938 293.942382812 307.998046875 c 0
 289.6953125 337.833007812 264.149414062 360 234.013671875 360 c 0
 203.877929688 360 178.33203125 337.83203125 174.083984375 307.99609375 c 1
312.280273438 8.9716796875 m 1
 263.848632812 -18.990234375 204.178710938 -18.990234375 155.748046875 8.9716796875 c 0
 114.08203125 33.02734375 85.79296875 74.908203125 79.0341796875 122.54296875 c 0
 43.4453125 373.372070312 144.591796875 624.1015625 344.267578125 780.0234375 c 1
 403.350585938 704.358398438 l 1
 319.633789062 638.985351562 254.373046875 552.950195312 213.991210938 454.713867188 c 1
 220.635742188 455.571289062 227.322265625 456 234.013671875 456 c 0
 311.95703125 456 378.025390625 398.655273438 388.989257812 321.48828125 c 0
 398.353515625 255.502929688 398.353515625 188.526367188 388.989257812 122.540039062 c 0
 382.23046875 74.9052734375 353.943359375 33.0263671875 312.278320312 8.9716796875 c 1
 312.280273438 8.9716796875 l 1
EndSplineSet
EndChar

StartChar: seven
Encoding: 55 55 33
Width: 468
Flags: HW
LayerCount: 2
Fore
SplineSet
396 768 m 5
 395.993164062 671.99609375 l 5
 297.453125 461.671875 246.377929688 232.256835938 246.377929688 0 c 5
 150.377929688 0 l 5
 150.377929688 231.266601562 198.125976562 460.04296875 290.6328125 672.000976562 c 5
 72 672 l 5
 72 768 l 5
 396 768 l 5
EndSplineSet
EndChar

StartChar: eight
Encoding: 56 56 34
Width: 468
Flags: HW
LayerCount: 2
Fore
SplineSet
383.999023438 564 m 5
 383.999023438 552 l 1029
257.90234375 462.405273438 m 4
 269.374023438 469.028320312 277.583007812 480.114257812 280.572265625 493.020507812 c 4
 293.385742188 548.344726562 289.556640625 606.221679688 269.567382812 659.375 c 4
 263.99609375 674.189453125 249.826171875 684 233.999023438 684 c 4
 218.171875 684 204.001953125 674.190429688 198.431640625 659.375976562 c 4
 178.44140625 606.219726562 174.612304688 548.341796875 187.426757812 493.018554688 c 4
 190.415039062 480.114257812 198.624023438 469.028320312 210.096679688 462.405273438 c 4
 224.887695312 453.865234375 243.111328125 453.865234375 257.90234375 462.405273438 c 4
330.416992188 23.09375 m 4
 274.654296875 -23.697265625 193.344726562 -23.697265625 137.581054688 23.09375 c 4
 114.862304688 42.1572265625 98.3046875 67.52734375 89.9990234375 96 c 4
 66 178.286132812 66 265.712890625 89.9990234375 347.999023438 c 4
 96.7177734375 371.033203125 108.862304688 392.119140625 125.374023438 409.55078125 c 5
 109.981445312 427.326171875 99.1904296875 448.5234375 93.9013671875 471.358398438 c 4
 76.8173828125 545.123046875 81.921875 622.293945312 108.575195312 693.16796875 c 4
 128.221679688 745.408203125 178.188476562 780 233.999023438 780 c 4
 289.810546875 780 339.778320312 745.407226562 359.422851562 693.166992188 c 4
 386.075195312 622.293945312 391.180664062 545.124023438 374.096679688 471.359375 c 4
 368.807617188 448.5234375 358.016601562 427.326171875 342.690429688 409.48046875 c 5
 359.202148438 392.00390625 371.298828125 370.970703125 377.998046875 348 c 4
 401.998046875 265.713867188 401.998046875 178.286132812 377.998046875 96 c 4
 369.6953125 67.5283203125 353.137695312 42.1572265625 330.416992188 23.09375 c 4
268.708984375 96.6337890625 m 5
 268.708007812 96.6337890625 l 5
 276.887695312 103.497070312 282.848632812 112.630859375 285.836914062 122.880859375 c 4
 304.717773438 187.611328125 304.717773438 256.387695312 285.836914062 321.120117188 c 4
 281.942382812 334.474609375 273.043945312 345.810546875 260.998046875 352.765625 c 4
 244.290039062 362.411132812 223.706054688 362.411132812 206.998046875 352.765625 c 4
 194.951171875 345.810546875 186.053710938 334.474609375 182.158203125 321.119140625 c 4
 163.279296875 256.387695312 163.279296875 187.611328125 182.158203125 122.880859375 c 4
 185.147460938 112.630859375 191.109375 103.497070312 199.288085938 96.6337890625 c 4
 219.36328125 79.7890625 248.634765625 79.7890625 268.708984375 96.6337890625 c 5
EndSplineSet
EndChar

StartChar: nine
Encoding: 57 57 35
Width: 475
Flags: HW
LayerCount: 2
Fore
SplineSet
301.266601562 460.999023438 m 5
 301.270507812 460.999023438 l 5
 309.364257812 518.037109375 309.364257812 575.930664062 301.270507812 632.966796875 c 4
 298.65625 651.387695312 287.716796875 667.583007812 271.604492188 676.885742188 c 4
 252.875976562 687.698242188 229.801757812 687.698242188 211.072265625 676.885742188 c 4
 194.9609375 667.583007812 184.020507812 651.388671875 181.408203125 632.96875 c 4
 173.314453125 575.930664062 173.314453125 518.03515625 181.408203125 460.997070312 c 4
 185.655273438 431.162109375 211.201171875 408.995117188 241.336914062 408.995117188 c 4
 271.47265625 408.995117188 297.018554688 431.163085938 301.266601562 460.999023438 c 5
163.0703125 760.0234375 m 5
 211.501953125 787.985351562 271.171875 787.985351562 319.602539062 760.0234375 c 4
 361.268554688 735.967773438 389.557617188 694.086914062 396.31640625 646.452148438 c 4
 431.905273438 395.623046875 330.758789062 144.893554688 131.083007812 -11.0283203125 c 5
 72 64.63671875 l 5
 155.716796875 130.009765625 220.977539062 216.044921875 261.359375 314.28125 c 5
 254.71484375 313.423828125 248.028320312 312.995117188 241.336914062 312.995117188 c 4
 163.393554688 312.995117188 97.3251953125 370.33984375 86.361328125 447.506835938 c 4
 76.9970703125 513.4921875 76.9970703125 580.46875 86.361328125 646.455078125 c 4
 93.1201171875 694.08984375 121.407226562 735.96875 163.072265625 760.0234375 c 5
 163.0703125 760.0234375 l 5
EndSplineSet
EndChar

